<mxfile host="app.diagrams.net" modified="2023-04-27T07:42:28.388Z" agent="Mozilla/5.0 (Windows NT 10.0; Win64; x64) AppleWebKit/537.36 (KHTML, like Gecko) Chrome/112.0.0.0 Safari/537.36 Edg/112.0.1722.58" etag="iCFJ6oF_Sd_mmRIJd5uP" version="21.2.2" type="github">
  <diagram name="Страница 1" id="l7ANhTsHwGW9ZGbiPJ-1">
    <mxGraphModel dx="580" dy="943" grid="1" gridSize="10" guides="1" tooltips="1" connect="1" arrows="1" fold="1" page="1" pageScale="1" pageWidth="827" pageHeight="1169" math="0" shadow="0">
      <root>
        <mxCell id="0" />
        <mxCell id="1" parent="0" />
        <mxCell id="8oXW4t1AYBhVc3lbEm_m-1" value="" style="whiteSpace=wrap;html=1;aspect=fixed;" vertex="1" parent="1">
          <mxGeometry x="160" y="360" width="80" height="80" as="geometry" />
        </mxCell>
        <mxCell id="8oXW4t1AYBhVc3lbEm_m-2" value="" style="whiteSpace=wrap;html=1;aspect=fixed;fontSize=30;" vertex="1" parent="1">
          <mxGeometry x="540" y="300" width="40" height="40" as="geometry" />
        </mxCell>
        <mxCell id="8oXW4t1AYBhVc3lbEm_m-3" value="" style="whiteSpace=wrap;html=1;aspect=fixed;" vertex="1" parent="1">
          <mxGeometry x="540" y="460" width="40" height="40" as="geometry" />
        </mxCell>
        <mxCell id="8oXW4t1AYBhVc3lbEm_m-4" value="" style="endArrow=none;html=1;rounded=0;" edge="1" parent="1">
          <mxGeometry width="50" height="50" relative="1" as="geometry">
            <mxPoint x="200" y="360" as="sourcePoint" />
            <mxPoint x="200" y="320" as="targetPoint" />
          </mxGeometry>
        </mxCell>
        <mxCell id="8oXW4t1AYBhVc3lbEm_m-5" value="" style="endArrow=none;html=1;rounded=0;entryX=0;entryY=0.5;entryDx=0;entryDy=0;" edge="1" parent="1" target="8oXW4t1AYBhVc3lbEm_m-2">
          <mxGeometry width="50" height="50" relative="1" as="geometry">
            <mxPoint x="200" y="320" as="sourcePoint" />
            <mxPoint x="250" y="270" as="targetPoint" />
          </mxGeometry>
        </mxCell>
        <mxCell id="8oXW4t1AYBhVc3lbEm_m-6" value="" style="endArrow=none;html=1;rounded=0;" edge="1" parent="1">
          <mxGeometry width="50" height="50" relative="1" as="geometry">
            <mxPoint x="200" y="480" as="sourcePoint" />
            <mxPoint x="200" y="440" as="targetPoint" />
          </mxGeometry>
        </mxCell>
        <mxCell id="8oXW4t1AYBhVc3lbEm_m-7" value="" style="endArrow=none;html=1;rounded=0;entryX=0;entryY=0.5;entryDx=0;entryDy=0;" edge="1" parent="1" target="8oXW4t1AYBhVc3lbEm_m-3">
          <mxGeometry width="50" height="50" relative="1" as="geometry">
            <mxPoint x="200" y="480" as="sourcePoint" />
            <mxPoint x="250" y="430" as="targetPoint" />
          </mxGeometry>
        </mxCell>
        <mxCell id="8oXW4t1AYBhVc3lbEm_m-8" value="" style="endArrow=none;html=1;rounded=0;" edge="1" parent="1">
          <mxGeometry width="50" height="50" relative="1" as="geometry">
            <mxPoint x="560" y="279.5" as="sourcePoint" />
            <mxPoint x="910" y="279.5" as="targetPoint" />
          </mxGeometry>
        </mxCell>
        <mxCell id="8oXW4t1AYBhVc3lbEm_m-9" value="" style="endArrow=none;html=1;rounded=0;" edge="1" parent="1">
          <mxGeometry width="50" height="50" relative="1" as="geometry">
            <mxPoint x="560" y="359.5" as="sourcePoint" />
            <mxPoint x="910" y="359.5" as="targetPoint" />
          </mxGeometry>
        </mxCell>
        <mxCell id="8oXW4t1AYBhVc3lbEm_m-10" value="" style="endArrow=none;html=1;rounded=0;" edge="1" parent="1">
          <mxGeometry width="50" height="50" relative="1" as="geometry">
            <mxPoint x="560" y="439.5" as="sourcePoint" />
            <mxPoint x="910" y="439.5" as="targetPoint" />
          </mxGeometry>
        </mxCell>
        <mxCell id="8oXW4t1AYBhVc3lbEm_m-11" value="" style="endArrow=none;html=1;rounded=0;" edge="1" parent="1">
          <mxGeometry width="50" height="50" relative="1" as="geometry">
            <mxPoint x="560" y="519.5" as="sourcePoint" />
            <mxPoint x="910" y="519.5" as="targetPoint" />
          </mxGeometry>
        </mxCell>
        <mxCell id="8oXW4t1AYBhVc3lbEm_m-12" value="" style="endArrow=none;html=1;rounded=0;exitX=0.5;exitY=0;exitDx=0;exitDy=0;" edge="1" parent="1" source="8oXW4t1AYBhVc3lbEm_m-3">
          <mxGeometry width="50" height="50" relative="1" as="geometry">
            <mxPoint x="510" y="490" as="sourcePoint" />
            <mxPoint x="560" y="440" as="targetPoint" />
          </mxGeometry>
        </mxCell>
        <mxCell id="8oXW4t1AYBhVc3lbEm_m-13" value="" style="endArrow=none;html=1;rounded=0;exitX=0.5;exitY=1;exitDx=0;exitDy=0;" edge="1" parent="1" source="8oXW4t1AYBhVc3lbEm_m-3">
          <mxGeometry width="50" height="50" relative="1" as="geometry">
            <mxPoint x="510" y="570" as="sourcePoint" />
            <mxPoint x="560" y="520" as="targetPoint" />
          </mxGeometry>
        </mxCell>
        <mxCell id="8oXW4t1AYBhVc3lbEm_m-14" value="" style="endArrow=none;html=1;rounded=0;exitX=0.5;exitY=0;exitDx=0;exitDy=0;" edge="1" parent="1" source="8oXW4t1AYBhVc3lbEm_m-2">
          <mxGeometry width="50" height="50" relative="1" as="geometry">
            <mxPoint x="510" y="330" as="sourcePoint" />
            <mxPoint x="560" y="280" as="targetPoint" />
          </mxGeometry>
        </mxCell>
        <mxCell id="8oXW4t1AYBhVc3lbEm_m-15" value="" style="endArrow=none;html=1;rounded=0;exitX=0.5;exitY=1;exitDx=0;exitDy=0;" edge="1" parent="1" source="8oXW4t1AYBhVc3lbEm_m-2">
          <mxGeometry width="50" height="50" relative="1" as="geometry">
            <mxPoint x="510" y="410" as="sourcePoint" />
            <mxPoint x="560" y="360" as="targetPoint" />
          </mxGeometry>
        </mxCell>
        <mxCell id="8oXW4t1AYBhVc3lbEm_m-16" value="&lt;span style=&quot;font-size: 20px;&quot;&gt;Благоприятное состояние&lt;/span&gt;" style="text;html=1;strokeColor=none;fillColor=none;align=center;verticalAlign=middle;whiteSpace=wrap;rounded=0;" vertex="1" parent="1">
          <mxGeometry x="590" y="250" width="290" height="30" as="geometry" />
        </mxCell>
        <mxCell id="8oXW4t1AYBhVc3lbEm_m-17" value="&lt;span style=&quot;font-size: 20px;&quot;&gt;Благоприятное состояние&lt;/span&gt;" style="text;html=1;strokeColor=none;fillColor=none;align=center;verticalAlign=middle;whiteSpace=wrap;rounded=0;" vertex="1" parent="1">
          <mxGeometry x="590" y="410" width="290" height="30" as="geometry" />
        </mxCell>
        <mxCell id="8oXW4t1AYBhVc3lbEm_m-18" value="&lt;span style=&quot;font-size: 20px;&quot;&gt;Неблагоприятное состояние&lt;/span&gt;" style="text;html=1;strokeColor=none;fillColor=none;align=center;verticalAlign=middle;whiteSpace=wrap;rounded=0;" vertex="1" parent="1">
          <mxGeometry x="590" y="330" width="290" height="30" as="geometry" />
        </mxCell>
        <mxCell id="8oXW4t1AYBhVc3lbEm_m-19" value="&lt;span style=&quot;font-size: 20px;&quot;&gt;Неблагоприятное состояние&lt;/span&gt;" style="text;html=1;strokeColor=none;fillColor=none;align=center;verticalAlign=middle;whiteSpace=wrap;rounded=0;" vertex="1" parent="1">
          <mxGeometry x="590" y="490" width="290" height="30" as="geometry" />
        </mxCell>
        <mxCell id="8oXW4t1AYBhVc3lbEm_m-20" value="&lt;span style=&quot;font-size: 20px;&quot;&gt;Открытие большой мастерской&lt;/span&gt;" style="text;html=1;strokeColor=none;fillColor=none;align=center;verticalAlign=middle;whiteSpace=wrap;rounded=0;fontSize=20;" vertex="1" parent="1">
          <mxGeometry x="213.5" y="330" width="293" height="30" as="geometry" />
        </mxCell>
        <mxCell id="8oXW4t1AYBhVc3lbEm_m-21" value="&lt;span style=&quot;font-size: 20px;&quot;&gt;Открытие маленькой мастерской&lt;/span&gt;" style="text;html=1;strokeColor=none;fillColor=none;align=center;verticalAlign=middle;whiteSpace=wrap;rounded=0;" vertex="1" parent="1">
          <mxGeometry x="230" y="490" width="260" height="30" as="geometry" />
        </mxCell>
        <mxCell id="8oXW4t1AYBhVc3lbEm_m-22" value="*" style="text;html=1;strokeColor=none;fillColor=none;align=center;verticalAlign=middle;whiteSpace=wrap;rounded=0;fontSize=45;" vertex="1" parent="1">
          <mxGeometry x="530" y="310" width="60" height="40" as="geometry" />
        </mxCell>
        <mxCell id="8oXW4t1AYBhVc3lbEm_m-23" value="*" style="text;html=1;strokeColor=none;fillColor=none;align=center;verticalAlign=middle;whiteSpace=wrap;rounded=0;fontSize=45;" vertex="1" parent="1">
          <mxGeometry x="530" y="470" width="60" height="40" as="geometry" />
        </mxCell>
        <mxCell id="8oXW4t1AYBhVc3lbEm_m-24" value="1" style="text;html=1;strokeColor=none;fillColor=none;align=center;verticalAlign=middle;whiteSpace=wrap;rounded=0;fontSize=22;" vertex="1" parent="1">
          <mxGeometry x="480" y="330" width="60" height="30" as="geometry" />
        </mxCell>
        <mxCell id="8oXW4t1AYBhVc3lbEm_m-25" value="2" style="text;html=1;strokeColor=none;fillColor=none;align=center;verticalAlign=middle;whiteSpace=wrap;rounded=0;fontSize=22;" vertex="1" parent="1">
          <mxGeometry x="480" y="490" width="60" height="30" as="geometry" />
        </mxCell>
        <mxCell id="8oXW4t1AYBhVc3lbEm_m-26" value="a&lt;sub&gt;1&lt;/sub&gt;" style="text;html=1;strokeColor=none;fillColor=none;align=center;verticalAlign=middle;whiteSpace=wrap;rounded=0;fontSize=22;" vertex="1" parent="1">
          <mxGeometry x="330" y="280" width="60" height="30" as="geometry" />
        </mxCell>
        <mxCell id="8oXW4t1AYBhVc3lbEm_m-27" value="a&lt;span style=&quot;font-size: 18.3333px;&quot;&gt;&lt;sub&gt;2&lt;/sub&gt;&lt;/span&gt;" style="text;html=1;strokeColor=none;fillColor=none;align=center;verticalAlign=middle;whiteSpace=wrap;rounded=0;fontSize=22;" vertex="1" parent="1">
          <mxGeometry x="330" y="440" width="60" height="30" as="geometry" />
        </mxCell>
        <mxCell id="8oXW4t1AYBhVc3lbEm_m-28" value="60000" style="text;html=1;strokeColor=none;fillColor=none;align=center;verticalAlign=middle;whiteSpace=wrap;rounded=0;fontSize=22;" vertex="1" parent="1">
          <mxGeometry x="920" y="260" width="60" height="40" as="geometry" />
        </mxCell>
        <mxCell id="8oXW4t1AYBhVc3lbEm_m-29" value="-65000" style="text;html=1;strokeColor=none;fillColor=none;align=center;verticalAlign=middle;whiteSpace=wrap;rounded=0;fontSize=22;" vertex="1" parent="1">
          <mxGeometry x="920" y="340" width="60" height="40" as="geometry" />
        </mxCell>
        <mxCell id="8oXW4t1AYBhVc3lbEm_m-30" value="30000" style="text;html=1;strokeColor=none;fillColor=none;align=center;verticalAlign=middle;whiteSpace=wrap;rounded=0;fontSize=22;" vertex="1" parent="1">
          <mxGeometry x="920" y="420" width="60" height="40" as="geometry" />
        </mxCell>
        <mxCell id="8oXW4t1AYBhVc3lbEm_m-31" value="-30000" style="text;html=1;strokeColor=none;fillColor=none;align=center;verticalAlign=middle;whiteSpace=wrap;rounded=0;fontSize=22;" vertex="1" parent="1">
          <mxGeometry x="920" y="500" width="60" height="40" as="geometry" />
        </mxCell>
        <mxCell id="8oXW4t1AYBhVc3lbEm_m-32" value="1000" style="text;html=1;strokeColor=none;fillColor=none;align=center;verticalAlign=middle;whiteSpace=wrap;rounded=0;fontSize=22;" vertex="1" parent="1">
          <mxGeometry x="140" y="440" width="60" height="30" as="geometry" />
        </mxCell>
        <mxCell id="8oXW4t1AYBhVc3lbEm_m-33" value="1000" style="text;html=1;strokeColor=none;fillColor=none;align=center;verticalAlign=middle;whiteSpace=wrap;rounded=0;fontSize=22;" vertex="1" parent="1">
          <mxGeometry x="530" y="250" width="60" height="30" as="geometry" />
        </mxCell>
        <mxCell id="8oXW4t1AYBhVc3lbEm_m-34" value="600" style="text;html=1;strokeColor=none;fillColor=none;align=center;verticalAlign=middle;whiteSpace=wrap;rounded=0;fontSize=22;" vertex="1" parent="1">
          <mxGeometry x="530" y="410" width="60" height="30" as="geometry" />
        </mxCell>
        <mxCell id="8oXW4t1AYBhVc3lbEm_m-35" value="//" style="text;html=1;strokeColor=none;fillColor=none;align=center;verticalAlign=middle;whiteSpace=wrap;rounded=0;fontSize=22;" vertex="1" parent="1">
          <mxGeometry x="446.5" y="465" width="60" height="30" as="geometry" />
        </mxCell>
      </root>
    </mxGraphModel>
  </diagram>
</mxfile>
